<svg xmlns="http://www.w3.org/2000/svg" viewBox="0 0 85.76 83.62"><defs><style>.cls-1{fill:#300;}.cls-2{fill:#ff9a00;}</style></defs><title>ai_icon</title><g id="Layer_2" data-name="Layer 2"><g id="Layer_1-2" data-name="Layer 1"><g id="Layer_2-2" data-name="Layer 2"><g id="Surfaces"><g id="Drawing_Surface" data-name="Drawing Surface"><g id="Outline_no_shadow" data-name="Outline no shadow"><path class="cls-1" d="M15.19,0H70.57A15.18,15.18,0,0,1,85.76,15.19V68.43A15.18,15.18,0,0,1,70.57,83.62H15.19A15.18,15.18,0,0,1,0,68.43V15.19A15.18,15.18,0,0,1,15.19,0Z"/></g></g></g><g id="Outlined_Mnemonics_Logos" data-name="Outlined Mnemonics Logos"><g id="Ai"><path class="cls-2" d="M41.56,50.17H28.27l-2.72,8.4a.63.63,0,0,1-.68.5H18.15c-.39,0-.5-.22-.39-.65L29.27,25.3c.1-.36.21-.75.35-1.18a11.93,11.93,0,0,0,.22-2.32.35.35,0,0,1,.28-.4h9.26c.28,0,.43.11.46.29l13,36.81c.1.39,0,.57-.36.57H45.06a.54.54,0,0,1-.57-.4ZM30.34,42.92h9.07c-.21-.75-.5-1.65-.82-2.58s-.64-2-1-3.07-.68-2.18-1-3.29-.68-2.14-1-3.18-.54-1.93-.79-2.78h-.07a44.24,44.24,0,0,1-1.22,4.61c-.53,1.71-1.07,3.5-1.64,5.28s-1,3.51-1.57,5Z"/><path class="cls-2" d="M60.68,27.52a4.41,4.41,0,0,1-3.18-1.26A4.62,4.62,0,0,1,56.28,23a4.21,4.21,0,0,1,1.29-3.18,4.52,4.52,0,0,1,3.18-1.25A4.26,4.26,0,0,1,64,19.8,4.51,4.51,0,0,1,65.18,23a4.52,4.52,0,0,1-1.25,3.28A4.21,4.21,0,0,1,60.68,27.52Zm-4,31V31c0-.36.15-.5.47-.5h7.07c.33,0,.47.18.47.5V58.53c0,.4-.14.57-.47.57h-7A.5.5,0,0,1,56.67,58.53Z"/></g></g></g></g></g></svg>