<svg xmlns="http://www.w3.org/2000/svg" xmlns:xlink="http://www.w3.org/1999/xlink" viewBox="0 0 1720.5 324.94"><defs><style>.cls-1,.cls-10,.cls-2,.cls-3,.cls-4,.cls-5,.cls-8,.cls-9{stroke:#b33767;stroke-miterlimit:10;stroke-width:2px;}.cls-1{fill:url(#linear-gradient);}.cls-2{fill:url(#linear-gradient-2);}.cls-3{fill:url(#linear-gradient-3);}.cls-4{fill:url(#linear-gradient-4);}.cls-5{fill:none;}.cls-6{fill:url(#linear-gradient-5);}.cls-7{fill:url(#linear-gradient-6);}.cls-8{fill:url(#linear-gradient-7);}.cls-9{fill:url(#linear-gradient-8);}.cls-10{fill:url(#linear-gradient-9);}</style><linearGradient id="linear-gradient" x1="0.25" y1="118.96" x2="703.25" y2="118.96" gradientUnits="userSpaceOnUse"><stop offset="0" stop-color="#ff75a1"/><stop offset="0.24" stop-color="#fb729e"/><stop offset="0.47" stop-color="#f06996"/><stop offset="0.68" stop-color="#de5a88"/><stop offset="0.89" stop-color="#c44574"/><stop offset="1" stop-color="#b33767"/></linearGradient><linearGradient id="linear-gradient-2" x1="0.25" y1="88.25" x2="680.92" y2="88.25" xlink:href="#linear-gradient"/><linearGradient id="linear-gradient-3" x1="1027.69" y1="119.66" x2="1720.03" y2="119.66" xlink:href="#linear-gradient"/><linearGradient id="linear-gradient-4" x1="1044.22" y1="88.86" x2="1720.03" y2="88.86" xlink:href="#linear-gradient"/><linearGradient id="linear-gradient-5" x1="725.04" y1="277.97" x2="861.22" y2="277.97" gradientUnits="userSpaceOnUse"><stop offset="0" stop-color="#1c2432"/><stop offset="0.27" stop-color="#1e2736"/><stop offset="0.52" stop-color="#233241"/><stop offset="0.76" stop-color="#2d4354"/><stop offset="1" stop-color="#3a5c6e"/><stop offset="1" stop-color="#3a5c6e"/></linearGradient><linearGradient id="linear-gradient-6" x1="862.52" y1="278.35" x2="1000" y2="278.35" xlink:href="#linear-gradient-5"/><linearGradient id="linear-gradient-7" x1="740.05" y1="252.09" x2="851.59" y2="140.55" gradientUnits="userSpaceOnUse"><stop offset="0" stop-color="#1c2432"/><stop offset="0.5" stop-color="#1d2634"/><stop offset="0.68" stop-color="#202c3b"/><stop offset="0.81" stop-color="#263746"/><stop offset="0.91" stop-color="#2f4757"/><stop offset="1" stop-color="#395b6d"/><stop offset="1" stop-color="#3a5c6e"/></linearGradient><linearGradient id="linear-gradient-8" x1="999.48" y1="198.62" x2="862.52" y2="198.62" gradientUnits="userSpaceOnUse"><stop offset="0" stop-color="#3a5c6e"/><stop offset="0" stop-color="#3a5c6e"/><stop offset="0.24" stop-color="#2d4354"/><stop offset="0.48" stop-color="#233241"/><stop offset="0.73" stop-color="#1e2736"/><stop offset="1" stop-color="#1c2432"/></linearGradient><linearGradient id="linear-gradient-9" x1="760.09" y1="17.94" x2="965.98" y2="136.81" xlink:href="#linear-gradient-5"/></defs><title>Asset 54</title><g id="Layer_2" data-name="Layer 2"><g id="Layer_1-2" data-name="Layer 1"><line class="cls-1" x1="0.25" y1="27.57" x2="703.25" y2="210.36"/><line class="cls-2" x1="0.25" y1="1.15" x2="680.92" y2="175.36"/><line class="cls-3" x1="1027.69" y1="211.75" x2="1720.03" y2="27.57"/><line class="cls-4" x1="1044.22" y1="176.57" x2="1720.03" y2="1.15"/><polyline class="cls-5" points="1720.25 54 1006.83 240.26 862.97 323.78 717.48 238.25 465.58 172.35 0.25 54"/><polygon class="cls-6" points="726.21 238.25 861.22 317.7 725.04 238.92 726.21 238.25"/><polygon class="cls-7" points="1000 238.92 862.52 318.46 867.63 315.45 917.5 286.11 998.83 238.25 1000 238.92"/><polygon class="cls-8" points="862.52 151.48 862.52 318.46 861.78 318.03 861.73 318 861.22 317.7 726.21 238.25 725.57 77.74 862.52 151.48"/><polygon class="cls-9" points="999.48 78.79 999.48 237.87 998.85 238.24 998.83 238.25 917.5 286.11 867.63 315.45 862.52 318.46 862.52 151.48 999.48 78.79"/><polygon class="cls-10" points="999.48 78.79 862.52 151.48 725.57 77.74 869.1 1.15 999.48 78.79"/><polyline class="cls-5" points="999.48 78.79 1000 238.92 862.52 318.46"/></g></g></svg>