<svg xmlns="http://www.w3.org/2000/svg" xmlns:xlink="http://www.w3.org/1999/xlink" viewBox="0 0 278.07 320.21"><defs><style>.cls-1{fill:url(#linear-gradient);}.cls-2{fill:url(#linear-gradient-2);}.cls-3,.cls-4,.cls-5,.cls-6{stroke:#b33767;stroke-miterlimit:10;stroke-width:2px;}.cls-3{fill:url(#linear-gradient-3);}.cls-4{fill:url(#linear-gradient-4);}.cls-5{fill:url(#linear-gradient-5);}.cls-6{fill:none;}</style><linearGradient id="linear-gradient" x1="1.59" y1="277.97" x2="137.77" y2="277.97" gradientUnits="userSpaceOnUse"><stop offset="0" stop-color="#1c2432"/><stop offset="0.27" stop-color="#1e2736"/><stop offset="0.52" stop-color="#233241"/><stop offset="0.76" stop-color="#2d4354"/><stop offset="1" stop-color="#3a5c6e"/><stop offset="1" stop-color="#3a5c6e"/></linearGradient><linearGradient id="linear-gradient-2" x1="139.07" y1="278.35" x2="276.55" y2="278.35" xlink:href="#linear-gradient"/><linearGradient id="linear-gradient-3" x1="16.6" y1="252.09" x2="128.14" y2="140.55" gradientUnits="userSpaceOnUse"><stop offset="0" stop-color="#1c2432"/><stop offset="0.5" stop-color="#1d2634"/><stop offset="0.68" stop-color="#202c3b"/><stop offset="0.81" stop-color="#263746"/><stop offset="0.91" stop-color="#2f4757"/><stop offset="1" stop-color="#395b6d"/><stop offset="1" stop-color="#3a5c6e"/></linearGradient><linearGradient id="linear-gradient-4" x1="276.03" y1="198.62" x2="139.07" y2="198.62" gradientUnits="userSpaceOnUse"><stop offset="0" stop-color="#3a5c6e"/><stop offset="0" stop-color="#3a5c6e"/><stop offset="0.24" stop-color="#2d4354"/><stop offset="0.48" stop-color="#233241"/><stop offset="0.73" stop-color="#1e2736"/><stop offset="1" stop-color="#1c2432"/></linearGradient><linearGradient id="linear-gradient-5" x1="36.64" y1="17.94" x2="242.53" y2="136.81" xlink:href="#linear-gradient"/></defs><title>Asset 53</title><g id="Layer_2" data-name="Layer 2"><g id="Layer_1-2" data-name="Layer 1"><polygon class="cls-1" points="2.76 238.25 137.77 317.7 1.59 238.92 2.76 238.25"/><polygon class="cls-2" points="276.55 238.92 139.07 318.46 144.18 315.45 194.05 286.11 275.38 238.25 276.55 238.92"/><polygon class="cls-3" points="139.07 151.48 139.07 318.46 138.33 318.03 138.28 318 137.77 317.7 2.76 238.25 2.12 77.74 139.07 151.48"/><polygon class="cls-4" points="276.03 78.79 276.03 237.87 275.4 238.24 275.38 238.25 194.05 286.11 144.18 315.45 139.07 318.46 139.07 151.48 276.03 78.79"/><polygon class="cls-5" points="276.03 78.79 139.07 151.48 2.12 77.74 145.65 1.15 276.03 78.79"/><polyline class="cls-6" points="276.03 78.79 276.55 238.92 139.07 318.46"/></g></g></svg>