<svg xmlns="http://www.w3.org/2000/svg" viewBox="0 0 28.06 35.71"><defs><style>.cls-1{fill:#fff;}</style></defs><title>cv_icon</title><g id="Layer_2" data-name="Layer 2"><g id="Layer_1-2" data-name="Layer 1"><path class="cls-1" d="M28.06,9.38a.09.09,0,0,0,0-.05v0a.43.43,0,0,1,0-.05h0s0,0,0-.05h0l0,0h0l0,0h0l0,0h0l0,0h0L19.08.19h0l0,0h0L19,.11h0l0,0h0l-.05,0h0l-.06,0h0l-.06,0H.66A.67.67,0,0,0,0,.66V35.05a.67.67,0,0,0,.66.66H27.4a.66.66,0,0,0,.66-.66V9.44h0Zm-2.25-.59H19.28V2.25Zm.94,25.6H1.32V1.32H18V9.45a.66.66,0,0,0,.19.46.64.64,0,0,0,.47.19h8.13Z"/><path class="cls-1" d="M9.63,9.22A2.74,2.74,0,1,0,6.89,6.48,2.74,2.74,0,0,0,9.63,9.22Zm0-4.16A1.43,1.43,0,1,1,8.21,6.48,1.43,1.43,0,0,1,9.63,5.06Z"/><path class="cls-1" d="M6.57,14.22a.66.66,0,0,0,.66-.65V12.41a1.35,1.35,0,0,1,1.35-1.35h2.11a1.35,1.35,0,0,1,1.36,1.35v1.16a.66.66,0,0,0,1.32,0V12.41a2.68,2.68,0,0,0-2.68-2.67H8.58a2.68,2.68,0,0,0-2.67,2.67v1.16A.66.66,0,0,0,6.57,14.22Z"/><path class="cls-1" d="M5.91,18.87a.66.66,0,0,0,.66.66H21.49a.66.66,0,1,0,0-1.31H6.57A.66.66,0,0,0,5.91,18.87Z"/><path class="cls-1" d="M21.49,28H6.57a.66.66,0,1,0,0,1.31H21.49a.66.66,0,1,0,0-1.31Z"/><path class="cls-1" d="M21.49,23.09H6.57a.66.66,0,0,0,0,1.32H21.49a.66.66,0,1,0,0-1.32Z"/></g></g></svg>