<svg xmlns="http://www.w3.org/2000/svg" xmlns:xlink="http://www.w3.org/1999/xlink" viewBox="0 0 122.3 79.15"><defs><style>.cls-1,.cls-11{fill:none;}.cls-2{fill:#394d54;}.cls-3{clip-path:url(#clip-path);}.cls-4{fill:#00acd3;}.cls-5{fill:#20c2ef;}.cls-11,.cls-6{stroke:#394d54;}.cls-6{stroke-width:1.56px;}.cls-7{fill:#17b5eb;}.cls-8{fill-opacity:0.17;}.cls-9{fill:#d4edf1;}.cls-10{fill-opacity:0.09;}.cls-11{stroke-linecap:round;stroke-width:3.4px;}</style><clipPath id="clip-path"><path id="SVGID" class="cls-1" d="M36.44,10.1v22H25.89v11H17.06c0,.32-.07.64-.1,1a29.65,29.65,0,0,0,2.91,16.29l.81,1.45a20.65,20.65,0,0,0,1.65,2.49c.59.8.81,1.24,1.18,1.77,6.37,7.16,15.87,10.61,26.84,10.61,24.29,0,44.9-10.76,54-34.93,6.47.66,12.68-1,15.51-6.52-4.51-2.6-10.3-1.77-13.64-.09l8.84-25.11-34.52,22h-11v-22Z"/></clipPath></defs><title>docker_icon</title><g id="Layer_2" data-name="Layer 2"><g id="Layer_1-2" data-name="Layer 1"><path id="path14" class="cls-2" d="M70.72,31.07h11V42.28h5.54A24.13,24.13,0,0,0,94.85,41a19.6,19.6,0,0,0,3.7-1.68A13.87,13.87,0,0,1,96,32.24c-.31-3.42.38-7.88,2.69-10.55l1.15-1.34,1.38,1.11c3.46,2.77,6.36,6.66,6.88,11.08a16.77,16.77,0,0,1,12.72,1.19l1.5.86-.79,1.55c-3.1,6.06-9.59,7.94-15.93,7.6-9.5,23.65-30.17,34.84-55.22,34.84-13,0-24.83-4.84-31.59-16.33-.4-.71-.74-1.45-1.1-2.19a31.8,31.8,0,0,1-2.53-16.13l.15-1.65h9.38V31.07h11v-11H57.56v-11H70.72V31.07"/><g class="cls-3"><g id="g16"><g id="g18"><g id="g20"><path id="path22" class="cls-4" d="M59.39,0H68.9V9.5H59.39Z"/><path id="path24" class="cls-5" d="M59.39,11H68.9v9.51H59.39Z"/><path id="path26" class="cls-6" d="M60.56,8.71V.79M62,8.71V.79m1.44,7.92V.79m1.44,7.92V.79M66.3,8.71V.79m1.43,7.92V.79"/><g id="use28"><path class="cls-6" d="M60.56,19.68V11.76M62,19.68V11.76m1.44,7.92V11.76m1.44,7.92V11.76m1.44,7.92V11.76m1.43,7.92V11.76"/></g></g><g id="use30"><path class="cls-4" d="M70.36,20.47h9.5V11h-9.5Z"/><path class="cls-5" d="M70.36,9.5h9.5V0h-9.5Z"/><path class="cls-6" d="M71.52,11.76v7.92M73,11.76v7.92m1.44-7.92v7.92m1.44-7.92v7.92m1.44-7.92v7.92m1.42-7.92v7.92"/><path class="cls-6" d="M71.52.79V8.71M73,.79V8.71M74.39.79V8.71M75.83.79V8.71M77.27.79V8.71M78.69.79V8.71"/></g></g><g id="use32"><path class="cls-4" d="M15.53,21.93H25v9.5H15.53Z"/><path class="cls-5" d="M15.53,32.89H25V42.4H15.53Z"/><path class="cls-6" d="M16.7,30.64V22.72m1.43,7.92V22.72m1.44,7.92V22.72M21,30.64V22.72m1.44,7.92V22.72m1.42,7.92V22.72"/><path class="cls-6" d="M16.7,41.61V33.69m1.43,7.92V33.69m1.44,7.92V33.69M21,41.61V33.69m1.44,7.92V33.69m1.42,7.92V33.69"/><path class="cls-4" d="M26.5,42.4H36V32.89H26.5Z"/><path class="cls-5" d="M26.5,31.43H36v-9.5H26.5Z"/><path class="cls-6" d="M27.67,33.69v7.92m1.42-7.92v7.92m1.44-7.92v7.92M32,33.69v7.92m1.44-7.92v7.92m1.42-7.92v7.92"/><path class="cls-6" d="M27.67,22.72v7.92m1.42-7.92v7.92m1.44-7.92v7.92M32,22.72v7.92m1.44-7.92v7.92m1.42-7.92v7.92"/></g><g id="use34"><path class="cls-4" d="M37.46,21.93H47v9.5H37.46Z"/><path class="cls-5" d="M37.46,32.89H47V42.4H37.46Z"/><path class="cls-6" d="M38.63,30.64V22.72m1.42,7.92V22.72m1.44,7.92V22.72m1.44,7.92V22.72m1.44,7.92V22.72m1.43,7.92V22.72"/><path class="cls-6" d="M38.63,41.61V33.69m1.42,7.92V33.69m1.44,7.92V33.69m1.44,7.92V33.69m1.44,7.92V33.69m1.43,7.92V33.69"/><path class="cls-4" d="M48.43,42.4h9.5V32.89h-9.5Z"/><path class="cls-5" d="M48.43,31.43h9.5v-9.5h-9.5Z"/><path class="cls-6" d="M49.59,33.69v7.92M51,33.69v7.92m1.44-7.92v7.92m1.44-7.92v7.92m1.44-7.92v7.92m1.42-7.92v7.92"/><path class="cls-6" d="M49.59,22.72v7.92M51,22.72v7.92m1.44-7.92v7.92m1.44-7.92v7.92m1.44-7.92v7.92m1.42-7.92v7.92"/></g><g id="use36"><path class="cls-4" d="M59.39,21.93H68.9v9.5H59.39Z"/><path class="cls-5" d="M59.39,32.89H68.9V42.4H59.39Z"/><path class="cls-6" d="M60.56,30.64V22.72M62,30.64V22.72m1.44,7.92V22.72m1.44,7.92V22.72m1.44,7.92V22.72m1.43,7.92V22.72"/><path class="cls-6" d="M60.56,41.61V33.69M62,41.61V33.69m1.44,7.92V33.69m1.44,7.92V33.69m1.44,7.92V33.69m1.43,7.92V33.69"/><path class="cls-4" d="M70.36,42.4h9.5V32.89h-9.5Z"/><path class="cls-5" d="M70.36,31.43h9.5v-9.5h-9.5Z"/><path class="cls-6" d="M71.52,33.69v7.92M73,33.69v7.92m1.44-7.92v7.92m1.44-7.92v7.92m1.44-7.92v7.92m1.42-7.92v7.92"/><path class="cls-6" d="M71.52,22.72v7.92M73,22.72v7.92m1.44-7.92v7.92m1.44-7.92v7.92m1.44-7.92v7.92m1.42-7.92v7.92"/></g></g></g><g class="cls-3"><path id="path38" class="cls-7" d="M106.25,35.21c.73-5.71-3.54-10.2-6.2-12.33-3,3.53-3.53,12.79,1.27,16.69C98.64,42,93,44.1,87.23,44.1H16.3c-.56,6,0,35.05,0,35.05H120.36l-.47-43.84c-4.51-2.6-10.31-1.77-13.64-.1"/></g><g class="cls-3"><path id="path40" class="cls-8" d="M16.3,51.81V79.15H120.36V51.81"/></g><g class="cls-3"><path id="path42" class="cls-9" d="M53.34,76.7c-6.49-3.08-10.06-7.27-12-11.84l-19.72.86L31.65,79.15,53.34,76.7"/></g><g class="cls-3"><path id="path44" class="cls-10" d="M106.69,35v0c-10,12.89-24.35,24.15-39.75,30.07-13.74,5.28-25.72,5.3-34,1.06-.89-.5-1.76-1.06-2.64-1.58-6.06-4.24-9.47-11.24-9.18-20.47H16.3V79.15H120.36v-46h-12Z"/></g><path id="path46" class="cls-11" d="M21.88,65.26c6.79.37,14,.43,20.36-1.55"/><path id="path48" class="cls-9" d="M49,60.43a2.62,2.62,0,1,1-2.62-2.63A2.62,2.62,0,0,1,49,60.43Z"/><path id="path50" class="cls-2" d="M47.05,58.68a.76.76,0,0,0,.38,1.42.79.79,0,0,0,.68-.39,1.88,1.88,0,1,1-1.74-1.16A1.72,1.72,0,0,1,47.05,58.68Z"/><path id="path52" class="cls-2" d="M0,52.37H122c-2.65-.67-8.4-1.58-7.45-5.06C109.67,52.9,98,51.23,95.09,48.47c-3.27,4.75-22.32,3-23.65-.75-4.11,4.81-16.82,4.81-20.92,0-1.33,3.7-20.38,5.5-23.65.75-2.94,2.76-14.59,4.43-19.42-1.16,1,3.48-4.79,4.39-7.45,5.06"/></g></g></svg>