<svg xmlns="http://www.w3.org/2000/svg" viewBox="0 0 80.67 80.67"><defs><style>.cls-1{fill:#fff;}.cls-2{fill:#639;}</style></defs><title>gatsby_icon</title><g id="Layer_2" data-name="Layer 2"><g id="Layer_1-2" data-name="Layer 1"><path class="cls-1" d="M72,40.34H51.86V46.1H65.69A26.12,26.12,0,0,1,49,64.83L15.85,31.69A25.91,25.91,0,0,1,40.34,14.41,26.62,26.62,0,0,1,61.66,25.35L66,21.61A31.67,31.67,0,0,0,9.51,33.42l38,38A32.4,32.4,0,0,0,72,40.34Z"/><path class="cls-1" d="M8.64,40.63a30.77,30.77,0,0,0,9.22,21.89,31.28,31.28,0,0,0,21.9,9.22Z"/><path class="cls-2" d="M40.34,0A40.34,40.34,0,1,0,80.67,40.34,40.45,40.45,0,0,0,40.34,0ZM17.86,62.81a31.28,31.28,0,0,1-9.22-21.9L40.05,72A32.72,32.72,0,0,1,17.86,62.81Zm29.39,8.36L9.51,33.42A31.67,31.67,0,0,1,66,21.61l-4.32,3.74A26.62,26.62,0,0,0,40.34,14.41,26.2,26.2,0,0,0,15.85,31.69L49,64.83A26.12,26.12,0,0,0,65.69,46.1H51.86V40.34H72A31.79,31.79,0,0,1,47.25,71.17Z"/></g></g></svg>