<svg xmlns="http://www.w3.org/2000/svg" viewBox="0 0 38.5 37.55"><defs><style>.cls-1{fill:#fff;fill-rule:evenodd;}</style></defs><title>github_icon</title><g id="Layer_2" data-name="Layer 2"><g id="Layer_1-2" data-name="Layer 1"><path class="cls-1" d="M19.25,0a19.25,19.25,0,0,0-6.09,37.51c1,.17,1.33-.41,1.33-.91s0-2,0-3.59C9.62,33.9,8.37,31.83,8,30.75A7.16,7.16,0,0,0,6,28c-.68-.36-1.64-1.25,0-1.27a3.82,3.82,0,0,1,3,2,4.13,4.13,0,0,0,5.61,1.59,4.09,4.09,0,0,1,1.22-2.58C11.5,27.26,7,25.6,7,18.24a7.46,7.46,0,0,1,2-5.17A7,7,0,0,1,9.19,8s1.61-.5,5.3,2a18.12,18.12,0,0,1,9.62,0c3.68-2.5,5.29-2,5.29-2a7,7,0,0,1,.2,5.11,7.45,7.45,0,0,1,2,5.17c0,7.39-4.5,9-8.78,9.5a4.6,4.6,0,0,1,1.3,3.56c0,2.58,0,4.65,0,5.3s.36,1.11,1.33.91A19.26,19.26,0,0,0,19.25,0Z"/></g></g></svg>