<svg xmlns="http://www.w3.org/2000/svg" viewBox="0 0 94.6 104.77"><defs><style>.cls-1{fill:#e44d26;}.cls-2{fill:#f16529;}.cls-3{fill:#ebebeb;}.cls-4{fill:#fff;}.cls-5{fill:#264de4;}.cls-6{fill:#2965f1;}</style></defs><title>htmlcss_icon</title><g id="Layer_2" data-name="Layer 2"><g id="Layer_1-2" data-name="Layer 1"><path class="cls-1" d="M5.71,97.68,0,33.58H62.78L57.07,97.64l-25.73,7.13"/><path class="cls-2" d="M31.39,99.32V38.84H57.05l-4.9,54.68"/><path class="cls-3" d="M11.66,46.68H31.39v7.86H20.28l.73,8H31.39v7.84H13.81m.34,4h7.9l.55,6.28L31.39,83v8.2L15.26,86.7"/><path class="cls-4" d="M51.05,46.68H31.36v7.86h19m-.71,8H31.36v7.86h9.69l-.92,10.21L31.36,83v8.17L47.45,86.7"/><g id="layer1"><g id="g3013"><polygon id="polygon2989" class="cls-5" points="94.6 0 88.84 64.51 62.95 71.69 37.14 64.52 31.39 0 94.6 0"/><polygon id="polygon2991" class="cls-6" points="83.91 60.4 88.83 5.28 62.99 5.28 62.99 66.2 83.91 60.4"/><polygon id="polygon2993" class="cls-3" points="44.58 29.2 45.29 37.12 62.99 37.12 62.99 29.2 44.58 29.2"/><polygon id="polygon2995" class="cls-3" points="62.99 13.19 62.97 13.19 43.15 13.19 43.87 21.1 62.99 21.1 62.99 13.19"/><polygon id="polygon2997" class="cls-3" points="62.99 57.99 62.99 49.76 62.96 49.77 54.15 47.38 53.58 41.07 49.3 41.07 45.64 41.07 46.75 53.5 62.96 58 62.99 57.99"/><polygon id="polygon3005" class="cls-4" points="72.71 37.12 71.79 47.38 62.97 49.76 62.97 57.99 79.19 53.5 79.31 52.16 81.17 31.33 81.36 29.2 82.79 13.19 62.97 13.19 62.97 21.1 74.12 21.1 73.4 29.2 62.97 29.2 62.97 37.12 72.71 37.12"/></g></g></g></g></svg>