<svg xmlns="http://www.w3.org/2000/svg" viewBox="0 0 68.21 75.33"><defs><style>.cls-1{fill:#c63d14;}.cls-2{fill:#fff;}</style></defs><title>jest_icon</title><g id="Layer_2" data-name="Layer 2"><g id="Layer_1-2" data-name="Layer 1"><path class="cls-1" d="M63.94,37.09a7,7,0,0,0-7-7,6,6,0,0,0-.74,0L65.82,1.71H24.89l9.62,28.38h-.43A7,7,0,0,0,32,43.77a30.79,30.79,0,0,1-5.52,6.94,28.06,28.06,0,0,1-9.82,6.1,8.94,8.94,0,0,1-4.48-11.38c.2-.48.41-1,.62-1.46a7,7,0,1,0-5.63-1.09C5.4,46.83,2.85,51,2.05,55.76,1.1,61.5,2.05,67.6,7,71c11.57,8,24.12-5,37.37-8.23,4.8-1.19,10.06-1,14.29-3.44a12,12,0,0,0,5.86-8.31,12.51,12.51,0,0,0-2.23-9.48,7,7,0,0,0,1.63-4.49Zm-22.84,0v0a7,7,0,0,0-3.38-6l7.65-15.48L53,31.25a7,7,0,0,0-3.13,5.84s0,.1,0,.15l-8.82-.13Z"/><path class="cls-2" d="M65.65,37.09a8.74,8.74,0,0,0-7.11-8.57L68.21,0H22.51l9.68,28.58A8.72,8.72,0,0,0,29.48,44.5a28.9,28.9,0,0,1-4.21,5,26.36,26.36,0,0,1-8.5,5.46,7.13,7.13,0,0,1-3.06-8.82l.11-.25.2-.47a8.74,8.74,0,1,0-9-2c-.29.62-.6,1.25-.92,1.9A37.82,37.82,0,0,0,.36,55.48C-.89,63,1.13,69.05,6,72.45a15.45,15.45,0,0,0,9.05,2.88c5.74,0,11.54-2.88,17.22-5.7,4.09-2,8.31-4.13,12.49-5.16,1.55-.38,3.15-.61,4.84-.86,3.36-.48,6.83-1,9.9-2.76a13.72,13.72,0,0,0,6.69-9.5,14.14,14.14,0,0,0-1.86-9.72,8.67,8.67,0,0,0,1.28-4.54Zm-3.42,0a5.3,5.3,0,1,1-5.3-5.3,5.31,5.31,0,0,1,5.3,5.3Zm1.2-33.67L54.89,28.61a9.65,9.65,0,0,0-1.08.33l-8.43-17.2-8.46,17.1a8.56,8.56,0,0,0-1.13-.31L27.28,3.42ZM34.08,31.79a5.3,5.3,0,1,1-5.29,5.3,5.3,5.3,0,0,1,5.29-5.3Zm-22.92.05a5.3,5.3,0,1,1-5.3,5.3,5.31,5.31,0,0,1,5.3-5.3Zm51.7,18.92a10.25,10.25,0,0,1-5,7.12c-2.5,1.45-5.5,1.88-8.67,2.34-1.7.25-3.46.5-5.17.92-4.54,1.12-8.94,3.31-13.2,5.42C22.27,70.79,14.92,74.44,8,69.64c-5.08-3.52-4.84-10-4.25-13.6A34.52,34.52,0,0,1,7.2,46.75l.73-1.51a8.55,8.55,0,0,0,2.25.57,10.67,10.67,0,0,0,5.65,12.52l.66.34.7-.25A29.62,29.62,0,0,0,27.62,52a32.68,32.68,0,0,0,5.16-6.24,9.25,9.25,0,0,0,1.3.09,8.71,8.71,0,0,0,5.8-15.23l5.48-11.09,5.54,11.3a8.72,8.72,0,0,0,11,13.46,10.65,10.65,0,0,1,1,6.51Z"/></g></g></svg>