<svg xmlns="http://www.w3.org/2000/svg" viewBox="0 0 36.04 36.04"><defs><style>.cls-1{fill:#fff;}</style></defs><title>linkedin_icon</title><g id="Layer_2" data-name="Layer 2"><g id="Layer_1-2" data-name="Layer 1"><path class="cls-1" d="M32.78,0H3.26A3.26,3.26,0,0,0,0,3.26V32.78A3.26,3.26,0,0,0,3.26,36H32.78A3.26,3.26,0,0,0,36,32.78V3.26A3.26,3.26,0,0,0,32.78,0ZM11.15,31.12a.94.94,0,0,1-1,.95h-4a.94.94,0,0,1-1-.95V14.19a1,1,0,0,1,1-.95h4a1,1,0,0,1,1,.95Zm-3-19.47A3.84,3.84,0,1,1,12,7.81,3.84,3.84,0,0,1,8.18,11.65ZM32.26,31.2a.87.87,0,0,1-.87.87H27.05a.87.87,0,0,1-.87-.87V23.26c0-1.19.35-5.19-3.09-5.19-2.68,0-3.22,2.74-3.33,4V31.2a.87.87,0,0,1-.87.87H14.7a.87.87,0,0,1-.87-.87V14.11a.87.87,0,0,1,.87-.87h4.19a.87.87,0,0,1,.87.87v1.48c1-1.48,2.47-2.63,5.6-2.63,6.94,0,6.9,6.48,6.9,10v8.2Z"/></g></g></svg>