<svg xmlns="http://www.w3.org/2000/svg" viewBox="0 0 105.25 47.17"><defs><style>.cls-1{fill:#a6a385;}.cls-1,.cls-2,.cls-3{fill-rule:evenodd;}.cls-2{fill:#499d4a;}.cls-3{fill:#58aa50;}</style></defs><title>mongo_icon</title><g id="Layer_2" data-name="Layer 2"><g id="Layer_1-2" data-name="Layer 1"><path class="cls-1" d="M0,26.85.91,24s14.3.11,15.24-5c3.91-3.48,168.2-2.15.75,12.85,0,0-2.18-4.2-5.82-4.9S0,26.85,0,26.85Z"/><path class="cls-2" d="M13.84,28.13s16.53,24.28,50,18C88.16,40.2,96,27,99,25.53a34.48,34.48,0,0,1,6-3.18L37.1,24.47c-.07,0-20.82-1.78-23.27,3.66"/><path class="cls-3" d="M12.85,22.4S28.21-.9,55.92,0,97.5,16.93,100,20c2.22,2,3,2.07,5.24,2.17-3.06,1.49-46,1.91-51.06,2.19C34.72,25.33,16.57,23.91,12.85,22.4Z"/></g></g></svg>