<svg xmlns="http://www.w3.org/2000/svg" xmlns:xlink="http://www.w3.org/1999/xlink" viewBox="0 0 158.65 76.55"><defs><style>.cls-1{fill:none;}.cls-2{fill:#fff;}.cls-2,.cls-3{fill-rule:evenodd;}.cls-3{fill:#689f63;}.cls-4{clip-path:url(#clip-path);}.cls-5{fill:url(#linear-gradient);}.cls-6{clip-path:url(#clip-path-2);}.cls-7{fill:url(#linear-gradient-2);}.cls-8{clip-path:url(#clip-path-3);}.cls-9{fill:url(#linear-gradient-3);}</style><clipPath id="clip-path"><path id="SVGID" class="cls-1" d="M57.64,22.45,42.53,31.17a1.83,1.83,0,0,0-.91,1.58V50.2a1.83,1.83,0,0,0,.91,1.58l15.11,8.73a1.82,1.82,0,0,0,1.83,0l15.11-8.73a1.83,1.83,0,0,0,.91-1.58V32.75a1.82,1.82,0,0,0-.92-1.58l-15.1-8.72a1.79,1.79,0,0,0-.92-.25,1.76,1.76,0,0,0-.91.25"/></clipPath><linearGradient id="linear-gradient" x1="-1217.06" y1="4258.09" x2="-1216.63" y2="4258.09" gradientTransform="matrix(-50.75, 103.54, 103.54, 50.75, -502565.36, -90082.04)" gradientUnits="userSpaceOnUse"><stop offset="0.3" stop-color="#3e863d"/><stop offset="0.5" stop-color="#55934f"/><stop offset="0.8" stop-color="#5aad45"/></linearGradient><clipPath id="clip-path-2"><path id="SVGID-2" data-name="SVGID" class="cls-1" d="M42,51.31a1.87,1.87,0,0,0,.54.47l13,7.49,2.16,1.24a1.8,1.8,0,0,0,1.06.24,1.36,1.36,0,0,0,.35-.07L75,31.5a1.7,1.7,0,0,0-.42-.33l-9.9-5.72-5.23-3a2.14,2.14,0,0,0-.47-.2Z"/></clipPath><linearGradient id="linear-gradient-2" x1="-1168.58" y1="4276.82" x2="-1168.31" y2="4276.82" gradientTransform="matrix(142.41, -105.22, -105.22, -142.41, 616470, 486146.19)" gradientUnits="userSpaceOnUse"><stop offset="0.57" stop-color="#3e863d"/><stop offset="0.72" stop-color="#619857"/><stop offset="1" stop-color="#76ac64"/></linearGradient><clipPath id="clip-path-3"><path id="SVGID-3" data-name="SVGID" class="cls-1" d="M58.37,22.21a2,2,0,0,0-.73.24L42.58,31.14l16.24,29.6a1.87,1.87,0,0,0,.65-.23l15.11-8.73a1.78,1.78,0,0,0,.88-1.24L58.9,22.24a2.22,2.22,0,0,0-.37,0h-.15"/></clipPath><linearGradient id="linear-gradient-3" x1="-1177" y1="4291.65" x2="-1176.75" y2="4291.65" gradientTransform="matrix(129.89, 0, 0, -129.89, 152922.61, 557480.15)" gradientUnits="userSpaceOnUse"><stop offset="0.16" stop-color="#6bbf47"/><stop offset="0.38" stop-color="#79b461"/><stop offset="0.47" stop-color="#75ac64"/><stop offset="0.7" stop-color="#659e5a"/><stop offset="0.9" stop-color="#3e863d"/></linearGradient></defs><title>node_icon</title><g id="Layer_2" data-name="Layer 2"><g id="Layer_1-2" data-name="Layer 1"><path class="cls-2" d="M34.05,32.48a1.85,1.85,0,0,0-.92-1.6L17.94,22.14a1.77,1.77,0,0,0-.83-.24H17a1.81,1.81,0,0,0-.84.24L.92,30.88A1.85,1.85,0,0,0,0,32.48L0,56a.9.9,0,0,0,.46.79.88.88,0,0,0,.91,0l9-5.17a1.86,1.86,0,0,0,.92-1.59v-11a1.84,1.84,0,0,1,.91-1.59l3.85-2.21A1.79,1.79,0,0,1,17,35a1.76,1.76,0,0,1,.91.25l3.84,2.21a1.83,1.83,0,0,1,.92,1.59v11a1.86,1.86,0,0,0,.92,1.59l9,5.17a.92.92,0,0,0,.91,0A.94.94,0,0,0,34,56Zm71.68,12.25a.46.46,0,0,1-.23.4l-5.22,3a.45.45,0,0,1-.45,0l-5.22-3a.44.44,0,0,1-.23-.4v-6a.45.45,0,0,1,.22-.4l5.22-3a.47.47,0,0,1,.46,0l5.22,3a.46.46,0,0,1,.23.4ZM107.14.12a.9.9,0,0,0-.91,0,.91.91,0,0,0-.46.79V24.23a.65.65,0,0,1-.32.56.66.66,0,0,1-.64,0l-3.8-2.2a1.88,1.88,0,0,0-1.84,0L84,31.36A1.84,1.84,0,0,0,83.06,33V50.49A1.83,1.83,0,0,0,84,52.08l15.19,8.78a1.83,1.83,0,0,0,1.84,0l15.19-8.78a1.83,1.83,0,0,0,.92-1.59V6.77a1.85,1.85,0,0,0-.94-1.61Zm50.6,38.43a1.82,1.82,0,0,0,.91-1.59V32.71a1.83,1.83,0,0,0-.91-1.59l-15.1-8.76a1.83,1.83,0,0,0-1.84,0l-15.19,8.77a1.83,1.83,0,0,0-.92,1.59V50.26a1.84,1.84,0,0,0,.93,1.59l15.09,8.61a1.86,1.86,0,0,0,1.8,0l9.13-5.08a.92.92,0,0,0,.47-.8.89.89,0,0,0-.46-.79L136.37,45a.9.9,0,0,1-.47-.79v-5.5a.92.92,0,0,1,.46-.8l4.76-2.74a.88.88,0,0,1,.91,0l4.76,2.74a.93.93,0,0,1,.46.8v4.32a.94.94,0,0,0,.46.8.92.92,0,0,0,.92,0Z"/><path class="cls-3" d="M141.5,37.73a.36.36,0,0,1,.35,0l2.92,1.68a.34.34,0,0,1,.17.31v3.36a.34.34,0,0,1-.17.31l-2.92,1.68a.36.36,0,0,1-.35,0l-2.91-1.68a.33.33,0,0,1-.18-.31V39.72a.34.34,0,0,1,.17-.31Z"/><g class="cls-4"><path class="cls-5" d="M90.76,29.69,48.18,8.82,26.35,53.35,68.93,74.22Z"/></g><g class="cls-6"><path class="cls-7" d="M23.59,35.86,53.65,76.55,93.41,47.17,63.34,6.49Z"/></g><g class="cls-8"><path class="cls-9" d="M42.58,22.21V60.74H75.46V22.21Z"/></g></g></g></svg>