<svg xmlns="http://www.w3.org/2000/svg" viewBox="0 0 93.56 96.05"><defs><style>.cls-1{fill:#fff;}.cls-2{fill:#326690;}</style></defs><title>postgres_icon</title><g id="Layer_2" data-name="Layer 2"><g id="Layer_1-2" data-name="Layer 1"><path class="cls-1" d="M55.8,1.74a40.09,40.09,0,0,0-12.32-.22,22.65,22.65,0,0,0-6.59,2.55C30.31,2,22.87.67,16.07,2A17.49,17.49,0,0,0,4,10.23C.77,15.55.14,21.92.56,28.08A132.11,132.11,0,0,0,5,48.27c1.7,5.73,3.61,11.47,6.8,16.57,1.7,2.76,4.25,5.74,7.65,6.59a9,9,0,0,0,7.65-1.92,8.79,8.79,0,0,0,3.82,2.34,17,17,0,0,0,12.54-.21c.21,5.52,0,11.26,2.12,16.36a11.35,11.35,0,0,0,4.47,6.37,11.83,11.83,0,0,0,8.5,1.49A21.76,21.76,0,0,0,66,93.31a13.58,13.58,0,0,0,5.31-6.16c2.55-5.74,2.77-11.9,3-18.06C80.24,69.51,86.4,68,90.86,64c1.7-1.49,3.19-3.82,2.55-6.16a5,5,0,0,0-5.1-3.4c-2.34.21-4.46.85-6.8.85,5.1-8.93,9.14-18.49,10.84-28.47.64-4.25,1.27-8.5,0-12.75-.64-2.34-2.34-4.25-4-6A28.7,28.7,0,0,0,73.86.67,37.05,37.05,0,0,0,55.8,1.74Z"/><path class="cls-1" d="M55.59,4.29C62,2.37,68.76,1.74,75.14,3.65a24.79,24.79,0,0,1,13,8.71,10.44,10.44,0,0,1,1.7,6.16,40,40,0,0,1-1.49,11.26,92.38,92.38,0,0,1-11.9,27.41c3,1.28,6.38.64,9.35.21,1.28-.21,3-.63,3.83.64s0,2.76-.85,3.61c-4.47,4.46-11.26,5.53-17.21,4.46-.64,5.32-1.28,10.63-2.13,16.15-.42,3-1.49,6.16-3.82,8.08-2.13,1.91-5.1,2.76-7.86,3.18s-6.17.22-8.29-1.91a12.85,12.85,0,0,1-4-8.29,138.26,138.26,0,0,1-.63-16.14,13.53,13.53,0,0,1-9.35,3.18c-2.34-.21-5.1-.63-6.8-2.33a2.22,2.22,0,0,1,.21-3.4c1.91-1.49,4.46-1.28,6.59-2.13,1.7-.42,2.55-2.12,3.4-3.18a14.2,14.2,0,0,1-5.32-1.49c-2.55,2.76-5.1,5.73-7.43,8.5-1.49,1.7-3.4,3.18-5.74,2.76-2.55-.43-4.46-2.34-6-4.25A51.22,51.22,0,0,1,8.21,51.45,145.36,145.36,0,0,1,2.9,28.29C2.26,22.35,2.9,16,6.3,11.08c2.76-4,7.43-6.16,12.11-6.58a43,43,0,0,1,18.7,2.76C42,4.07,48.37,3.44,54.1,4.71,54.74,4.29,55.17,4.5,55.59,4.29ZM60.27,6c1.27.85,2.55,1.49,3.82,2.34A31.47,31.47,0,0,1,75.56,22.13c.64,1.7,1.49,3.19,1.28,5.1,0,3.61-1.28,7.23-.85,10.84.42,3.82,1.27,7.86.21,11.68a27.49,27.49,0,0,1-1.49,3.83,2.14,2.14,0,0,0,.22.64L76.2,52.3a85.65,85.65,0,0,0,9.14-21.24,49.88,49.88,0,0,0,1.91-12.54A8.67,8.67,0,0,0,86,13.42a22.5,22.5,0,0,0-9.13-6.8A31.36,31.36,0,0,0,60.27,6Zm-14.88.43a14.94,14.94,0,0,0-10.2,5.95,30.67,30.67,0,0,0-5.1,15.3c3.4-1.49,7-3,10.84-2.13a6.7,6.7,0,0,1,4.67,5.1c1.07,4.89,1.7,9.78.64,14.66-.85,3.83-3.18,7.23-4,11.26a6.84,6.84,0,0,1,3,.64,5.48,5.48,0,0,1,2.76,5.31,134.59,134.59,0,0,0,.21,15.94A36.16,36.16,0,0,0,49,85c.85,2.55,2.55,5.1,5.32,5.74A15.6,15.6,0,0,0,63,89.06c2.55-1.27,3.82-4.25,4.25-7,.85-5.74,1.48-11.47,2.12-17.21.21-2.13-.21-4.25,1.06-6.16.64-1.28,1.92-1.7,3-2.34-.85-1.27-1.91-2.55-2.76-3.82-2.77-6-6.59-11.48-7.86-17.85-.43-2.76-.22-6,2.12-7.86,2.55-2.13,6-1.92,9.14-1.92a30.57,30.57,0,0,0-9.57-13.38A27,27,0,0,0,45.39,6.41Zm-28.26.42A13.1,13.1,0,0,0,8,13c-2.55,4.46-2.76,9.56-2.34,14.44A123.89,123.89,0,0,0,9.91,46.57c1.7,5.31,3.4,10.62,6.37,15.29,1.07,1.7,2.34,3.4,4.25,4,1.7.43,3-1.06,4-2.12,2.12-2.76,4.67-5.31,7-8.08a14.61,14.61,0,0,1-4.67-12.32,59.15,59.15,0,0,0,.42-10.62,40.16,40.16,0,0,1,1.91-14.88,24.14,24.14,0,0,1,5.53-9.56C29,7.05,22.87,5.77,17.13,6.83ZM66.64,28.72c-1.7,1.27-1.7,3.82-1.28,5.74,1.28,6.16,4.89,11.26,7.44,16.78,2.13-4,.85-8.71.43-13.17-.43-3.61.63-7,.85-10.41C71.74,27.66,69,27.23,66.64,28.72ZM29.88,31.06c0,3,.21,5.95,0,8.71-.21,2.55-.85,5.1-.21,7.65a10.22,10.22,0,0,0,9.77,8.5A37.45,37.45,0,0,1,42,49.12c3-5.74,2.34-12.33.85-18.28a3.82,3.82,0,0,0-3.61-3C35.83,27.87,32.64,29.36,29.88,31.06ZM73,59.74a4.3,4.3,0,0,0-.85,3.19,15.11,15.11,0,0,0,6.17.42c3-.42,6.16-1.27,8.49-3.61-3.61.43-7.64,1.28-11.26-.42A2.71,2.71,0,0,0,73,59.74ZM38,64c-2.13,1.27-4.68,1.06-6.59,2.12,4.25,2.13,10.41,1.49,13.39-2.55,1.48-1.48,0-4.46-1.92-4.24C40.72,60.59,39.87,62.93,38,64Z"/><path class="cls-1" d="M67.49,29.57a5,5,0,0,1,4.25-.43,2.54,2.54,0,0,1-3.61,2.13C67.7,31.06,66.85,30.21,67.49,29.57Z"/><path class="cls-1" d="M37.53,29.78a4.15,4.15,0,0,1,3.83.64c.63.64,0,1.7-.64,1.91a2.68,2.68,0,0,1-4-1.7A.92.92,0,0,1,37.53,29.78Z"/><path class="cls-2" d="M60.27,6a28.67,28.67,0,0,1,16.36.85,20.83,20.83,0,0,1,9.13,6.8C87,15.12,87,17,87,18.73a50.91,50.91,0,0,1-1.92,12.54A85.32,85.32,0,0,1,76,52.52l-1.28,1.91a2.21,2.21,0,0,0-.21-.64A27.38,27.38,0,0,0,76,50c1.06-3.83.21-7.86-.21-11.69-.43-3.61.85-7.22.85-10.84.21-1.7-.64-3.4-1.28-5.09A33,33,0,0,0,63.88,8.53C63,7.47,61.54,6.83,60.27,6Z"/><path class="cls-2" d="M45.39,6.41a26.24,26.24,0,0,1,18.91,5.1,28.9,28.9,0,0,1,9.56,13.38c-3,0-6.58-.21-9.13,1.92-2.34,1.91-2.55,5.1-2.13,7.86,1.28,6.59,5.1,12.11,7.86,17.85a15.83,15.83,0,0,0,2.77,3.82c-1.28.64-2.34,1.06-3,2.34-1.06,1.91-.64,4-1.06,6.16-.64,5.74-1.28,11.47-2.13,17.21-.42,2.76-1.7,5.74-4.24,7a15.27,15.27,0,0,1-8.72,1.7c-2.76-.42-4.67-3.19-5.31-5.74a34.49,34.49,0,0,1-.85-6.58c-.21-5.31-.21-10.63-.21-15.94A5.48,5.48,0,0,0,45,57.19a6.86,6.86,0,0,0-3-.64c.85-3.82,3.19-7.22,4-11.26,1.06-4.88.42-9.77-.64-14.66a6.7,6.7,0,0,0-4.67-5.1c-3.83-.85-7.44.43-10.84,2.13A30.57,30.57,0,0,1,35,12.36,16.81,16.81,0,0,1,45.39,6.41Z"/><path class="cls-2" d="M17.13,6.83c5.95-1.06,11.9,0,17.64,1.7a24.18,24.18,0,0,0-5.53,9.57A43.6,43.6,0,0,0,27.33,33a45,45,0,0,1-.42,10.62,14.5,14.5,0,0,0,4.67,12.33c-2.34,2.76-4.67,5.31-7,8.07-1.06,1.27-2.34,2.55-4,2.12-1.91-.63-3.18-2.33-4.25-4-3-4.68-4.67-10-6.37-15.3A113.79,113.79,0,0,1,5.66,27.66C5.24,22.77,5.45,17.46,8,13.21A13.58,13.58,0,0,1,17.13,6.83Z"/><path class="cls-2" d="M66.64,28.72c2.12-1.49,5.1-1.28,7.44-1.06-.22,3.4-1.28,6.8-.85,10.41.42,4.25,1.48,8.92-.43,13.17C70,45.72,66.43,40.62,65.36,34.46,65.15,32.54,65.15,30.21,66.64,28.72Zm.85.85c-.64.64,0,1.49.64,1.7a2.54,2.54,0,0,0,3.61-2.13A5,5,0,0,0,67.49,29.57Z"/><path class="cls-2" d="M29.88,31.06c2.76-1.7,5.95-3.19,9.14-3a3.83,3.83,0,0,1,3.61,3c1.49,5.95,1.91,12.53-.85,18.27a37.45,37.45,0,0,0-2.55,6.8c-4.89,0-8.92-4-9.77-8.5-.64-2.55.21-5.1.21-7.65A64,64,0,0,0,29.88,31.06Zm7.65-1.28c-.42.21-.85.43-.85.85a2.68,2.68,0,0,0,4,1.7c.64-.42,1.27-1.27.64-1.91A4.15,4.15,0,0,0,37.53,29.78Z"/><path class="cls-2" d="M73,59.74c.64-.42,1.7-1.06,2.55-.42,3.4,1.91,7.44.85,11.26.42a15.31,15.31,0,0,1-8.49,3.61c-2.13.21-4.25.43-6.17-.42A4.3,4.3,0,0,1,73,59.74Z"/><path class="cls-2" d="M38,64c1.91-1.06,2.76-3.4,4.67-4.67,1.91-.22,3.61,2.76,1.91,4.24-3,4-9.13,4.89-13.38,2.55C33.28,65.26,35.83,65.26,38,64Z"/><path d="M55.8,1.74A42.15,42.15,0,0,1,73.65.67,27.93,27.93,0,0,1,88.1,8.11c1.7,1.7,3.4,3.61,4,6,1.27,4.25.63,8.5,0,12.75A93.09,93.09,0,0,1,81.3,55.28c2.34,0,4.46-.64,6.8-.85,2.12-.21,4.67,1.27,5.1,3.4.64,2.34-.85,4.67-2.55,6.16C86,68,79.6,69.3,73.86,69.09c-.42,6.16-.42,12.32-3,18.06a15.1,15.1,0,0,1-5.31,6.16,19.29,19.29,0,0,1-7.44,2.55,12,12,0,0,1-8.5-1.49A11.33,11.33,0,0,1,45.18,88c-1.91-5.31-1.7-10.84-2.12-16.36a17,17,0,0,1-12.54.21,8.82,8.82,0,0,1-3.83-2.34,9,9,0,0,1-7.64,1.92c-3.4-.85-5.74-3.83-7.65-6.59C8.21,59.74,6.3,54,4.6,48.27A126.81,126.81,0,0,1,.14,28.08c-.43-6.16,0-12.53,3.4-17.85A18.88,18.88,0,0,1,15.65,2c7-1.49,14.23,0,20.82,1.91a25.08,25.08,0,0,1,6.59-2.55A42.09,42.09,0,0,1,55.8,1.74Zm-.21,2.55c-.42.21-1.06-.22-1.49-.22C48.37,2.8,42,3.44,37.11,6.62a43.19,43.19,0,0,0-18.7-2.76c-4.68.43-9.56,2.76-12.11,6.59-3.4,5.1-3.83,11.47-3.4,17.21A137.76,137.76,0,0,0,8.21,50.6C9.91,55.28,11.61,60,14.37,64c1.49,1.91,3.4,4,6,4.25,2.34.21,4.25-1.06,5.74-2.76,2.55-3,4.88-5.74,7.43-8.5a16.88,16.88,0,0,0,5.32,1.49c-1.07,1.27-1.92,2.76-3.4,3.18-2.13.85-4.68.64-6.59,2.13a2.22,2.22,0,0,0-.21,3.4c1.7,1.7,4.46,2.12,6.8,2.33a12.6,12.6,0,0,0,9.35-3.18,138.26,138.26,0,0,0,.63,16.14,11.91,11.91,0,0,0,4,8.29c2.12,1.91,5.52,2.34,8.29,1.91,2.76-.63,5.73-1.48,7.86-3.18a13.13,13.13,0,0,0,3.82-8.08c.85-5.31,1.49-10.62,2.13-16.15,6,1.07,12.74-.21,17.21-4.46.85-.85,1.91-2.55.85-3.61-.85-1.06-2.55-.85-3.83-.64-3,.64-6.37,1.28-9.35-.21a92.38,92.38,0,0,0,11.9-27.41A49.5,49.5,0,0,0,89.8,17.67c-.21-2.12-.43-4.46-1.7-6.16a24.85,24.85,0,0,0-13-8.71A47.18,47.18,0,0,0,55.59,4.29Z"/></g></g></svg>