<svg xmlns="http://www.w3.org/2000/svg" viewBox="0 0 72.78 64.82"><defs><style>.cls-1{fill:#61dafb;}</style></defs><title>react_icon</title><g id="Layer_2" data-name="Layer 2"><g id="Layer_1-2" data-name="Layer 1"><path class="cls-1" d="M72.78,32.42c0-4.83-6-9.39-15.29-12.23,2.13-9.43,1.19-16.94-3-19.34A6.43,6.43,0,0,0,51.17,0V3.32a3.46,3.46,0,0,1,1.69.39c2,1.16,2.89,5.56,2.21,11.23a44,44,0,0,1-.76,4.36,72.61,72.61,0,0,0-9.42-1.62,72.52,72.52,0,0,0-6.17-7.41c4.84-4.5,9.38-7,12.46-7V0h0C47.1,0,41.76,2.91,36.36,8,31,2.94,25.62.06,21.54.06V3.37c3.07,0,7.63,2.45,12.46,6.91a70.86,70.86,0,0,0-6.12,7.4,69.32,69.32,0,0,0-9.44,1.64c-.34-1.49-.59-2.93-.77-4.31-.7-5.66.16-10.07,2.17-11.24a3.24,3.24,0,0,1,1.7-.39V.07h0A6.66,6.66,0,0,0,18.19.9c-4.17,2.41-5.1,9.9-3,19.31C6,23.05,0,27.61,0,32.42s6,9.39,15.3,12.22c-2.14,9.44-1.19,16.94,3,19.35a6.57,6.57,0,0,0,3.34.83c4.08,0,9.42-2.91,14.82-7.95,5.4,5,10.74,7.89,14.82,7.89a6.67,6.67,0,0,0,3.36-.83c4.16-2.41,5.1-9.9,2.95-19.3C66.78,41.79,72.78,37.22,72.78,32.42Zm-19.31-9.9c-.55,1.91-1.23,3.89-2,5.86-.61-1.19-1.25-2.37-1.95-3.56s-1.41-2.34-2.13-3.47Q50.54,21.82,53.47,22.52Zm-6.8,15.8c-1.15,2-2.34,3.9-3.57,5.67q-3.32.28-6.71.29c-2.24,0-4.48-.1-6.67-.28-1.24-1.76-2.44-3.65-3.59-5.63S24,34.45,23,32.46c.92-2,2-4,3.07-5.92s2.34-3.9,3.58-5.67c2.21-.19,4.45-.29,6.7-.29s4.48.1,6.68.28c1.23,1.76,2.43,3.65,3.59,5.64s2.15,3.91,3.08,5.9C48.81,34.39,47.79,36.38,46.67,38.32Zm4.8-1.93c.8,2,1.48,4,2,5.91-1.94.47-4,.87-6.11,1.18.73-1.14,1.45-2.31,2.14-3.51S50.86,37.58,51.47,36.39Zm-15,15.83a58.63,58.63,0,0,1-4.12-4.75c1.33.06,2.7.11,4.08.11s2.77,0,4.12-.11A54.73,54.73,0,0,1,36.42,52.22Zm-11-8.74c-2.1-.31-4.14-.69-6.08-1.17.55-1.91,1.23-3.89,2-5.86.61,1.19,1.25,2.38,1.95,3.56S24.66,42.36,25.38,43.48Zm11-30.87a58.63,58.63,0,0,1,4.12,4.75c-1.33-.06-2.7-.11-4.08-.11s-2.77,0-4.12.11A54.73,54.73,0,0,1,36.35,12.61Zm-11,8.74c-.73,1.14-1.45,2.31-2.14,3.51s-1.32,2.38-1.93,3.57c-.8-2-1.48-4-2-5.91C21.2,22.06,23.25,21.66,25.37,21.35ZM11.94,39.92c-5.25-2.24-8.65-5.17-8.65-7.5s3.4-5.29,8.65-7.51c1.28-.55,2.67-1,4.11-1.5a71.8,71.8,0,0,0,3.34,9,70.12,70.12,0,0,0-3.29,9C14.63,41,13.23,40.47,11.94,39.92Zm8,21.2c-2-1.15-2.89-5.56-2.21-11.23.17-1.39.43-2.86.76-4.36a72.91,72.91,0,0,0,9.42,1.62,72.67,72.67,0,0,0,6.17,7.42c-4.83,4.49-9.37,7-12.46,7A3.42,3.42,0,0,1,19.92,61.12Zm35.19-11.3c.7,5.67-.16,10.07-2.16,11.24a3.28,3.28,0,0,1-1.71.39c-3.07,0-7.62-2.45-12.46-6.91a70,70,0,0,0,6.13-7.41,67.7,67.7,0,0,0,9.43-1.63A41.11,41.11,0,0,1,55.11,49.82Zm5.72-9.9c-1.28.55-2.67,1-4.11,1.5a71.69,71.69,0,0,0-3.34-9,71.23,71.23,0,0,0,3.29-9c1.47.46,2.87,1,4.17,1.51,5.25,2.24,8.65,5.18,8.65,7.51S66.08,37.7,60.83,39.92Z"/><circle class="cls-1" cx="36.38" cy="32.42" r="6.78"/></g></g></svg>