<svg xmlns="http://www.w3.org/2000/svg" viewBox="0 0 67.98 64.53"><defs><style>.cls-1{fill:#764abc;}</style></defs><title>redux_icon</title><g id="Layer_2" data-name="Layer 2"><g id="Layer_1-2" data-name="Layer 1"><path class="cls-1" d="M47.1,45.07a4.86,4.86,0,0,0-.52-9.69h-.17a4.84,4.84,0,0,0-4.67,5,4.92,4.92,0,0,0,1.38,3.2c-2.94,5.79-7.44,10-14.19,13.58a23.37,23.37,0,0,1-14.1,2.68A12,12,0,0,1,6,54.76a12.7,12.7,0,0,1-.69-13.41,20.32,20.32,0,0,1,5.88-6.92c-.34-1.13-.86-3-1.12-4.41C-2.47,39.1-1.17,51.38,2.64,57.18c2.85,4.33,8.65,7,15.05,7a21.39,21.39,0,0,0,5.19-.61A33.21,33.21,0,0,0,47.1,45.07ZM62.32,34.34C55.75,26.64,46.06,22.4,35,22.4H33.61a4.77,4.77,0,0,0-4.24-2.59h-.18a4.85,4.85,0,0,0,.18,9.69h.17a4.89,4.89,0,0,0,4.24-2.94h1.56a33,33,0,0,1,18.42,5.62,23.11,23.11,0,0,1,9.17,11.07,12,12,0,0,1-.17,10.21,12.69,12.69,0,0,1-11.85,7.09,22.13,22.13,0,0,1-8.48-1.81c-1,.86-2.68,2.25-3.89,3.11A26.68,26.68,0,0,0,49.7,64.53c8.3,0,14.44-4.58,16.78-9.17,2.51-5,2.33-13.66-4.16-21ZM18.38,46.54a4.87,4.87,0,0,0,4.85,4.67h.17a4.85,4.85,0,0,0-.17-9.69h-.18a1.39,1.39,0,0,0-.6.09A31.67,31.67,0,0,1,18,22.4,23.19,23.19,0,0,1,23.05,9c2.51-3.2,7.36-4.76,10.64-4.85C42.86,4,46.75,15.4,47,20c1.13.26,3,.87,4.33,1.3C50.3,7.27,41.65,0,33.35,0c-7.79,0-15,5.62-17.82,13.93C11.55,25,14.14,35.64,19,44a3.84,3.84,0,0,0-.61,2.51Z"/></g></g></svg>