<svg xmlns="http://www.w3.org/2000/svg" viewBox="0 0 86.84 65.12"><defs><style>.cls-1{fill:#cd6799;}</style></defs><title>sass_icon</title><g id="Layer_2" data-name="Layer 2"><g id="Layer_1-2" data-name="Layer 1"><path class="cls-1" d="M74.77,37.44a17.83,17.83,0,0,0-7.86,1.82,16.84,16.84,0,0,1-1.77-4.08A11.19,11.19,0,0,1,65,31.76a29.51,29.51,0,0,1,1-3.7c0-.16-.19-.9-1.94-.92s-3.25.34-3.42.8a17.89,17.89,0,0,0-.73,2.58c-.31,1.59-3.49,7.25-5.32,10.21a11,11,0,0,1-1.2-3,10.87,10.87,0,0,1-.16-3.42,31.44,31.44,0,0,1,1-3.7c0-.16-.19-.9-1.94-.92s-3.25.33-3.42.79-.37,1.54-.73,2.59S43.59,43.59,42.48,46c-.57,1.26-1.06,2.25-1.41,2.94h0l-.07.12-.47.91h0c-.24.43-.49.83-.62.83a5.26,5.26,0,0,1,0-2.7c.64-3.28,2.14-8.39,2.13-8.56s.28-1-1-1.45a1.58,1.58,0,0,0-1.79.3c-.11,0-.19.27-.19.27S40.48,33,36.47,33c-2.51,0-6,2.75-7.68,5.22L23,41.37l-2.8,1.54L20,42.7C15.1,37.52,6.13,33.85,6.51,26.89c.14-2.54,1-9.2,17.24-17.29C37.1,3,47.73,4.84,49.57,8.89c2.63,5.77-5.69,16.49-19.49,18.05-5.27.58-8-1.45-8.73-2.21s-.84-.84-1.11-.68c-.44.24-.16.95,0,1.36a8.12,8.12,0,0,0,5,3.92c2.54.83,8.71,1.29,16.18-1.6C49.76,24.49,56.29,15.5,54.38,8S39.77-2.2,27.76,2.07C20.62,4.6,12.88,8.6,7.32,13.8.7,20-.34,25.37.08,27.62c1.54,8,12.57,13.19,17,17.05l-.6.33c-2.2,1.1-10.61,5.49-12.7,10.14-2.38,5.26.38,9,2.2,9.54,5.66,1.57,11.49-1.25,14.61-5.91s2.74-10.72,1.3-13.5a.47.47,0,0,0-.06-.09c.57-.34,1.15-.69,1.73-1,1.12-.67,2.23-1.28,3.18-1.79a20.81,20.81,0,0,0-1.12,5.77c-.24,3,1,6.85,2.58,8.38a2.9,2.9,0,0,0,2.1.68c1.87,0,2.71-1.56,3.64-3.4,1.15-2.25,2.18-4.87,2.18-4.87S34.8,56,38.29,56c1.27,0,2.56-1.65,3.13-2.49h0a1.41,1.41,0,0,0,.09-.15l.21-.34v0c.51-.89,1.65-2.9,3.34-6.25,2.19-4.31,4.3-9.7,4.3-9.7a27.67,27.67,0,0,0,.84,3.5A33,33,0,0,0,52,44.62c-.51.71-.82,1.11-.82,1.11v0c-.41.54-.85,1.12-1.35,1.69a51.85,51.85,0,0,0-4.07,5.11,1.38,1.38,0,0,0,.38,1.87,3.42,3.42,0,0,0,2.12.35A9.66,9.66,0,0,0,51.47,54a10.74,10.74,0,0,0,2.75-1.44,6.17,6.17,0,0,0,2.63-5.41,11,11,0,0,0-1-3.82c.16-.22.3-.45.46-.67a73.36,73.36,0,0,0,4.76-8.21,27.67,27.67,0,0,0,.84,3.5,23.74,23.74,0,0,0,1.54,3.49,15.1,15.1,0,0,0-4.63,6c-1,2.89-.23,4.19,1.25,4.49a4.42,4.42,0,0,0,2.31-.48A10.37,10.37,0,0,0,65.32,50c1.7-1.26,3.33-3,3.23-5.37a10.12,10.12,0,0,0-.72-3.17,16.51,16.51,0,0,1,8.42-1c7.55.88,9,5.59,8.75,7.58a5,5,0,0,1-2.39,3.39c-.53.33-.7.44-.65.68s.31.34.76.27a5.9,5.9,0,0,0,4.11-5.25C87.06,42.48,82.62,37.39,74.77,37.44ZM16.53,57.07C14,59.8,10.54,60.83,9,60s-1-5,2.09-7.85A40.18,40.18,0,0,1,17,47.71l1.55-.93.18-.1h0l.38-.24A10.86,10.86,0,0,1,16.53,57.07Zm18.24-12.4c-.87,2.12-2.7,7.56-3.81,7.26-.95-.25-1.53-4.38-.19-8.45a19.34,19.34,0,0,1,3-5.44c1.36-1.52,2.87-2,3.24-1.41C37.44,37.44,35.31,43.34,34.77,44.67Zm15,7.2c-.36.19-.71.32-.87.22s.16-.32.16-.32,1.89-2,2.63-3c.43-.54.94-1.17,1.48-1.88v.2C53.22,49.57,50.87,51.2,49.82,51.87Zm11.61-2.65c-.27-.19-.22-.82.69-2.81a10.57,10.57,0,0,1,2.58-3.33A4.35,4.35,0,0,1,65,44.54,4.79,4.79,0,0,1,61.43,49.22Z"/></g></g></svg>