<svg xmlns="http://www.w3.org/2000/svg" viewBox="0 0 74.9 74.82"><defs><style>.cls-1{fill:#010101;}.cls-2{fill:#fff;}</style></defs><title>socket_icon</title><g id="Layer_2" data-name="Layer 2"><g id="Layer_1-2" data-name="Layer 1"><path class="cls-1" d="M28,1.18A37.45,37.45,0,0,1,74.88,36.57,37.43,37.43,0,1,1,.29,33C1.77,18,13.36,4.81,28,1.18Z"/><path class="cls-2" d="M26.48,7.31C44.79,0,67.25,13.52,69.14,33.15c3,17.67-11.71,35.62-29.61,36.14C22.51,71,6.06,56.56,5.58,39.46,4.31,25.62,13.43,11.89,26.48,7.31Z"/><path class="cls-1" d="M28.32,35.51c8.21-6.7,16.24-13.64,24.62-20.15C48.55,22.12,44,28.79,39.62,35.55c-3.77,0-7.54,0-11.3,0Zm6.94,3.74c3.79,0,7.56,0,11.34,0C38.34,46,30.34,53,21.94,59.45c4.4-6.76,8.92-13.44,13.32-20.2Z"/></g></g></svg>