<svg xmlns="http://www.w3.org/2000/svg" xmlns:xlink="http://www.w3.org/1999/xlink" viewBox="0 0 1720 332.16"><defs><style>.cls-1{fill:none;}.cls-1,.cls-2,.cls-3,.cls-4,.cls-5{stroke:#b33767;stroke-miterlimit:10;stroke-width:2px;}.cls-2{fill:url(#linear-gradient);}.cls-3{fill:url(#linear-gradient-2);}.cls-4{fill:url(#linear-gradient-3);}.cls-5{fill:url(#linear-gradient-4);}</style><linearGradient id="linear-gradient" x1="1004.71" y1="278.86" x2="1039.32" y2="218.91" gradientTransform="matrix(-1, 0, 0, 1, 1969.27, 0)" gradientUnits="userSpaceOnUse"><stop offset="0" stop-color="#1c2432"/><stop offset="0.27" stop-color="#1e2736"/><stop offset="0.52" stop-color="#233241"/><stop offset="0.76" stop-color="#2d4354"/><stop offset="1" stop-color="#3a5c6e"/><stop offset="1" stop-color="#3a5c6e"/></linearGradient><linearGradient id="linear-gradient-2" x1="1203.58" y1="289.61" x2="1139.08" y2="177.9" xlink:href="#linear-gradient"/><linearGradient id="linear-gradient-3" x1="1053.94" y1="221.68" x2="1226.35" y2="49.28" gradientTransform="matrix(-1, 0, 0, 1, 1969.27, 0)" gradientUnits="userSpaceOnUse"><stop offset="0" stop-color="#3a5c6e"/><stop offset="0" stop-color="#3a5c6e"/><stop offset="0.24" stop-color="#2d4354"/><stop offset="0.48" stop-color="#233241"/><stop offset="0.73" stop-color="#1e2736"/><stop offset="1" stop-color="#1c2432"/></linearGradient><linearGradient id="linear-gradient-4" x1="999.05" y1="47.93" x2="1086.63" y2="199.63" xlink:href="#linear-gradient"/></defs><title>Asset 55</title><g id="Layer_2" data-name="Layer 2"><g id="Layer_1-2" data-name="Layer 1"><path class="cls-1" d="M0,150c67.87,0,67.87,20,135.73,20s67.87-20,135.73-20,67.87,20,135.73,20,67.87-20,135.74-20,67.87,20,135.74,20"/><path class="cls-1" d="M0,123.54c66.62,0,66.62,20,133.24,20s66.62-20,133.24-20,66.63,20,133.25,20,66.62-20,133.24-20,66.63,20,133.25,20"/><path class="cls-1" d="M1032.67,140c68.71,0,68.71,20,137.42,20s68.71-20,137.42-20,68.71,20,137.42,20,68.71-20,137.42-20,68.72,20,137.43,20"/><path class="cls-1" d="M1046.67,113.54c67.31,0,67.31,20,134.62,20s67.31-20,134.62-20,67.31,20,134.62,20,67.31-20,134.62-20,67.32,20,134.63,20"/><path class="cls-1" d="M1720,186.39H1021.67c-14.18,68.68-77.58,129.5-146.26,143.69a37.58,37.58,0,0,1-7.68,1.08c-85.05,0-165.93-64.3-182.48-144.51v-.26H0"/><path class="cls-2" d="M882.47,317.59c64.08-13.23,117.66-71,130.89-135.13-28.11,24.06-45.37,34.72-95,43.12C911.51,266.07,898.72,298.6,882.47,317.59Z"/><path class="cls-3" d="M694.64,186.07c15.44,74.85,90.92,134.86,170.29,134.86,20.64,0,38.45-37.62,49-94.65-16.84,2.12-40.77,3.31-59.49,3.31C782.71,229.59,723.58,210.86,694.64,186.07Z"/><path class="cls-4" d="M694.64,165.63c0,28.32,67.62,59.87,164.64,59.87a404.89,404.89,0,0,0,56.05-3.82,404.78,404.78,0,0,0,3.82-56.05C919.15,68.61,887.59,1,859.28,1,768.51,1,694.64,74.86,694.64,165.63Z"/><path class="cls-5" d="M922.28,167.1A428,428,0,0,1,919,220.63c57-10.59,93.06-32.89,93.06-53.53,0-79.37-56.46-145.79-131.31-161.24C905.55,34.81,922.28,95.34,922.28,167.1Z"/></g></g></svg>