<svg xmlns="http://www.w3.org/2000/svg" viewBox="0 0 1720 219.62"><defs><style>.cls-1{fill:none;stroke:#b33767;stroke-miterlimit:10;stroke-width:2px;}</style></defs><title>Asset 56</title><g id="Layer_2" data-name="Layer 2"><g id="Layer_1-2" data-name="Layer 1"><path class="cls-1" d="M0,37.42c67.87,0,67.87,20,135.73,20s67.87-20,135.73-20,67.87,20,135.73,20,67.87-20,135.74-20,67.87,20,135.74,20"/><path class="cls-1" d="M0,11c66.62,0,66.62,20,133.24,20s66.62-20,133.24-20,66.63,20,133.25,20S466.35,11,533,11,599.6,31,666.22,31"/><path class="cls-1" d="M1032.67,27.42c68.71,0,68.71,20,137.42,20s68.71-20,137.42-20,68.71,20,137.42,20,68.71-20,137.42-20,68.72,20,137.43,20"/><path class="cls-1" d="M1046.67,1C1114,1,1114,21,1181.29,21S1248.6,1,1315.91,1s67.31,20,134.62,20,67.31-20,134.62-20,67.32,20,134.63,20"/><path class="cls-1" d="M1720,73.85H1021.67c-14.18,68.67-77.58,129.5-146.26,143.69a37.58,37.58,0,0,1-7.68,1.08c-85.05,0-165.93-64.3-182.48-144.52v-.25H0"/></g></g></svg>