<svg xmlns="http://www.w3.org/2000/svg" xmlns:xlink="http://www.w3.org/1999/xlink" viewBox="0 0 1720 325.52"><defs><style>.cls-1,.cls-11,.cls-2{fill:none;}.cls-1{stroke:#242d32;stroke-width:3px;}.cls-1,.cls-10,.cls-11,.cls-5,.cls-7,.cls-8,.cls-9{stroke-miterlimit:10;}.cls-3{fill:url(#linear-gradient);}.cls-4{fill:#b33767;}.cls-10,.cls-11,.cls-5,.cls-7,.cls-8,.cls-9{stroke:#b33767;}.cls-5{fill:url(#linear-gradient-2);}.cls-6{fill:url(#linear-gradient-3);}.cls-10,.cls-11,.cls-7,.cls-8,.cls-9{stroke-width:2px;}.cls-7{fill:url(#linear-gradient-4);}.cls-8{fill:url(#linear-gradient-5);}.cls-9{fill:url(#linear-gradient-6);}.cls-10{fill:url(#linear-gradient-7);}</style><linearGradient id="linear-gradient" x1="295.7" y1="288.29" x2="480.49" y2="182.53" gradientTransform="translate(470.59 -98.18) rotate(-0.89)" gradientUnits="userSpaceOnUse"><stop offset="0" stop-color="#1c2432"/><stop offset="0.27" stop-color="#1e2736"/><stop offset="0.52" stop-color="#233241"/><stop offset="0.76" stop-color="#2d4354"/><stop offset="1" stop-color="#3a5c6e"/><stop offset="1" stop-color="#3a5c6e"/></linearGradient><linearGradient id="linear-gradient-2" x1="1045.1" y1="-441.53" x2="1002.67" y2="-466.03" gradientTransform="matrix(-1, 0.01, -0.01, -1, 1938.95, -296.89)" gradientUnits="userSpaceOnUse"><stop offset="0" stop-color="#3a5c6e"/><stop offset="0" stop-color="#395a6b"/><stop offset="0.01" stop-color="#38596a"/><stop offset="0.23" stop-color="#2c4251"/><stop offset="0.45" stop-color="#233140"/><stop offset="0.7" stop-color="#1e2735"/><stop offset="0.99" stop-color="#1c2432"/></linearGradient><linearGradient id="linear-gradient-3" x1="380.06" y1="171.9" x2="380.13" y2="153.42" gradientTransform="translate(470.59 -98.18) rotate(-0.89)" gradientUnits="userSpaceOnUse"><stop offset="0" stop-color="#3a5c6e"/><stop offset="0" stop-color="#395b6d"/><stop offset="0" stop-color="#2f4757"/><stop offset="0" stop-color="#263747"/><stop offset="0" stop-color="#202c3b"/><stop offset="0" stop-color="#1d2634"/><stop offset="0" stop-color="#1c2432"/><stop offset="0.86" stop-color="#1c2432"/><stop offset="1" stop-color="#1c2432"/></linearGradient><linearGradient id="linear-gradient-4" y1="27.42" x2="678.67" y2="27.42" gradientUnits="userSpaceOnUse"><stop offset="0" stop-color="#ff75a1"/><stop offset="0.24" stop-color="#fb729e"/><stop offset="0.47" stop-color="#f06996"/><stop offset="0.68" stop-color="#de5a88"/><stop offset="0.89" stop-color="#c44574"/><stop offset="1" stop-color="#b33767"/></linearGradient><linearGradient id="linear-gradient-5" y1="1" x2="666.22" y2="1" xlink:href="#linear-gradient-4"/><linearGradient id="linear-gradient-6" x1="1032.67" y1="27.42" x2="1719.78" y2="27.42" xlink:href="#linear-gradient-4"/><linearGradient id="linear-gradient-7" x1="1046.67" y1="1" x2="1719.78" y2="1" xlink:href="#linear-gradient-4"/></defs><title>Asset 49</title><g id="Layer_2" data-name="Layer 2"><g id="Layer_1-2" data-name="Layer 1"><line class="cls-1" x1="729" y1="173.42" x2="987" y2="173.42"/><polygon id="SVGID" class="cls-2" points="761.54 79.25 864.14 315.85 1017.45 47.37 761.54 79.25"/><polygon id="SVGID-2" data-name="SVGID" class="cls-2" points="948.21 76.91 862.26 320.05 690.71 62.85 948.21 76.91"/><polygon class="cls-3" points="948.33 67.54 862.93 309.11 692.5 53.57 948.33 67.54"/><path class="cls-4" d="M690.55,52.46,862.9,310.87l.3.45h0l.89-2.51h0L949.49,67.25v0l.21-.57,0,0ZM862.93,309.11,692.5,53.57l255.83,14Z"/><polygon class="cls-5" points="1016.39 48.21 863.21 311.33 949.49 67.25 949.64 67.73 1016.39 48.21"/><polygon class="cls-6" points="949.7 66.66 949.72 66.62 690.55 52.46 1015.59 47.4 949.7 66.66"/><line class="cls-7" y1="27.42" x2="678.67" y2="27.42"/><line class="cls-8" y1="1" x2="666.22" y2="1"/><line class="cls-9" x1="1032.67" y1="27.42" x2="1719.78" y2="27.42"/><line class="cls-10" x1="1046.67" y1="1" x2="1719.78" y2="1"/><polyline class="cls-11" points="1720 53.85 1021.67 53.85 862.72 323.63 688 58.22 685.25 53.85 0 53.85"/></g></g></svg>