<svg xmlns="http://www.w3.org/2000/svg" xmlns:xlink="http://www.w3.org/1999/xlink" viewBox="0 0 326.91 272.4"><defs><style>.cls-1{fill:none;}.cls-2{fill:url(#linear-gradient);}.cls-3{fill:#b33767;}.cls-4{stroke:#b33767;stroke-miterlimit:10;fill:url(#linear-gradient-2);}.cls-5{fill:url(#linear-gradient-3);}</style><linearGradient id="linear-gradient" x1="-397.17" y1="248.74" x2="-212.38" y2="142.99" gradientTransform="matrix(-1, 0.01, -0.01, -1, -146.74, 388.94)" gradientUnits="userSpaceOnUse"><stop offset="0" stop-color="#1c2432"/><stop offset="0.27" stop-color="#1e2736"/><stop offset="0.52" stop-color="#233241"/><stop offset="0.76" stop-color="#2d4354"/><stop offset="1" stop-color="#3a5c6e"/><stop offset="1" stop-color="#3a5c6e"/></linearGradient><linearGradient id="linear-gradient-2" x1="-688.46" y1="-755.63" x2="-730.9" y2="-780.13" gradientTransform="translate(814.52 911.77) rotate(-0.57)" gradientUnits="userSpaceOnUse"><stop offset="0" stop-color="#3a5c6e"/><stop offset="0" stop-color="#395a6b"/><stop offset="0.01" stop-color="#38596a"/><stop offset="0.23" stop-color="#2c4251"/><stop offset="0.45" stop-color="#233140"/><stop offset="0.7" stop-color="#1e2735"/><stop offset="0.99" stop-color="#1c2432"/></linearGradient><linearGradient id="linear-gradient-3" x1="-312.81" y1="132.36" x2="-312.74" y2="113.88" gradientTransform="matrix(-1, 0.01, -0.01, -1, -146.74, 388.94)" gradientUnits="userSpaceOnUse"><stop offset="0" stop-color="#3a5c6e"/><stop offset="0" stop-color="#395b6d"/><stop offset="0" stop-color="#2f4757"/><stop offset="0" stop-color="#263747"/><stop offset="0" stop-color="#202c3b"/><stop offset="0" stop-color="#1d2634"/><stop offset="0" stop-color="#1c2432"/><stop offset="0.86" stop-color="#1c2432"/><stop offset="1" stop-color="#1c2432"/></linearGradient></defs><title>Asset 48</title><g id="Layer_2" data-name="Layer 2"><g id="Layer_1-2" data-name="Layer 1"><polygon id="SVGID" class="cls-1" points="255.97 240.98 153.79 4.2 0 272.4 255.97 240.98"/><polygon id="SVGID-2" data-name="SVGID" class="cls-1" points="69.29 242.99 155.68 0 326.77 257.51 69.29 242.99"/><polygon class="cls-2" points="69.16 252.36 154.99 10.94 324.97 266.78 69.16 252.36"/><path class="cls-3" d="M326.91,267.9,155,9.18l-.3-.45h0l-.89,2.51h0L68,252.65v0l-.21.57,0,0ZM155,10.94,325,266.78,69.16,252.36Z"/><polygon class="cls-4" points="1.06 271.57 154.71 8.72 68 252.65 67.85 252.17 1.06 271.57"/><polygon class="cls-5" points="67.79 253.24 67.77 253.28 326.92 267.9 1.87 272.38 67.79 253.24"/></g></g></svg>