<svg xmlns="http://www.w3.org/2000/svg" xmlns:xlink="http://www.w3.org/1999/xlink" viewBox="0 0 328.39 268.25"><defs><style>.cls-1{fill:none;}.cls-2{fill:#1c2432;}.cls-3{clip-path:url(#clip-path);}.cls-4{fill:url(#linear-gradient);}.cls-5{clip-path:url(#clip-path-2);}.cls-6{fill:url(#linear-gradient-2);}.cls-7{fill:url(#linear-gradient-3);}.cls-8{clip-path:url(#clip-path-3);}.cls-9{fill:url(#linear-gradient-4);}</style><clipPath id="clip-path"><polygon id="SVGID" class="cls-1" points="257.22 245.26 162.88 5.25 0.36 268.25 257.22 245.26"/></clipPath><linearGradient id="linear-gradient" x1="-802.32" y1="10184.93" x2="-801.32" y2="10184.93" gradientTransform="matrix(-256.86, 0, 0, 256.86, -205826.64, -2615954.54)" gradientUnits="userSpaceOnUse"><stop offset="0" stop-color="#3a5c6e"/><stop offset="0" stop-color="#395b6d"/><stop offset="0.09" stop-color="#2f4757"/><stop offset="0.19" stop-color="#263747"/><stop offset="0.32" stop-color="#202c3b"/><stop offset="0.5" stop-color="#1d2634"/><stop offset="1" stop-color="#1c2432"/></linearGradient><clipPath id="clip-path-2"><polygon id="SVGID-2" data-name="SVGID" class="cls-1" points="70.58 241.13 164.91 1.11 327.44 264.11 70.58 241.13"/></clipPath><linearGradient id="linear-gradient-2" x1="-802.54" y1="10184.93" x2="-801.54" y2="10184.93" gradientTransform="translate(206209.1 -2615958.68) scale(256.86)" xlink:href="#linear-gradient"/><linearGradient id="linear-gradient-3" x1="-821.01" y1="10204.31" x2="-820.01" y2="10204.31" gradientTransform="translate(2718585.31 218712.93) rotate(90) scale(266.4)" gradientUnits="userSpaceOnUse"><stop offset="0" stop-color="#ff75a1"/><stop offset="0.24" stop-color="#fb729e"/><stop offset="0.47" stop-color="#f06996"/><stop offset="0.68" stop-color="#de5a88"/><stop offset="0.89" stop-color="#c44574"/><stop offset="1" stop-color="#b33767"/></linearGradient><clipPath id="clip-path-3"><polygon id="SVGID-3" data-name="SVGID" class="cls-2" points="33.86 262.1 156.51 249.96 301.57 263.11 33.86 262.1"/></clipPath><linearGradient id="linear-gradient-4" x1="-802.26" y1="10174.34" x2="-801.26" y2="10174.34" gradientTransform="matrix(-165.77, 0, 0, 165.77, -132830.75, -1686518.93)" xlink:href="#linear-gradient-3"/></defs><title>triangle_3d</title><g id="Layer_2" data-name="Layer 2"><g id="Layer_1-2" data-name="Layer 1"><g class="cls-3"><rect class="cls-4" x="0.36" y="5.25" width="256.86" height="263"/></g><g class="cls-5"><rect class="cls-6" x="70.58" y="1.11" width="256.86" height="263"/></g><polygon class="cls-7" points="70.58 241.13 70.11 240.94 164.81 0 328.39 264.7 69.87 241.56 70.11 240.94 70.58 241.13 70.63 240.63 326.49 263.52 165.01 2.23 71.05 241.31 70.58 241.13 70.63 240.63 70.58 241.13"/><polygon id="SVGID-4" data-name="SVGID" class="cls-2" points="33.86 262.1 156.51 249.96 301.57 263.11 33.86 262.1"/><g class="cls-8"><rect class="cls-2" x="33.86" y="249.96" width="267.71" height="13.15"/></g><polygon class="cls-9" points="68.02 240.8 161.16 5.95 2.29 262.14 68.98 240.52 160.45 1.94 161.38 2.29 69.75 241.32 0 263.94 163.27 0.65 164.16 1.09 68.95 241.17 68.02 240.8 68.02 240.8"/></g></g></svg>