<svg xmlns="http://www.w3.org/2000/svg" viewBox="0 0 75.25 75.25"><defs><style>.cls-1{fill:#3178c6;}.cls-2{fill:#fff;fill-rule:evenodd;}</style></defs><title>ts_icon</title><g id="Layer_2" data-name="Layer 2"><g id="Layer_1-2" data-name="Layer 1"><rect class="cls-1" width="75.25" height="75.25" rx="7.35"/><rect class="cls-1" width="75.25" height="75.25" rx="7.35"/><path class="cls-2" d="M46.58,59.88v7.36a15.88,15.88,0,0,0,4.24,1.38,28.66,28.66,0,0,0,5.17.46,23.87,23.87,0,0,0,5-.51,12.3,12.3,0,0,0,4.18-1.67,8.51,8.51,0,0,0,2.84-3,10.66,10.66,0,0,0,.45-8.14,8.28,8.28,0,0,0-1.73-2.68,12.61,12.61,0,0,0-2.7-2.1,28.64,28.64,0,0,0-3.55-1.76c-1-.4-1.84-.79-2.6-1.16a13.74,13.74,0,0,1-2-1.15,5.2,5.2,0,0,1-1.24-1.24,2.66,2.66,0,0,1-.44-1.49,2.51,2.51,0,0,1,.39-1.37,3.38,3.38,0,0,1,1.11-1,5.86,5.86,0,0,1,1.75-.68,10.15,10.15,0,0,1,2.3-.24,13.32,13.32,0,0,1,1.94.14,15.37,15.37,0,0,1,2.06.42,14.18,14.18,0,0,1,2,.73,10.94,10.94,0,0,1,1.81,1V36.24a18.24,18.24,0,0,0-3.67-1A29.58,29.58,0,0,0,59.39,35a21.56,21.56,0,0,0-5,.56A12.58,12.58,0,0,0,50.3,37.3a8.76,8.76,0,0,0-2.82,3.05,8.92,8.92,0,0,0-1,4.42,8.58,8.58,0,0,0,1.9,5.61,14.57,14.57,0,0,0,5.76,3.94c1,.41,2,.81,2.83,1.21a15.73,15.73,0,0,1,2.27,1.25,5.65,5.65,0,0,1,1.5,1.4,2.83,2.83,0,0,1,.56,1.72,2.61,2.61,0,0,1-.35,1.32,3,3,0,0,1-1,1.06,5.69,5.69,0,0,1-1.74.7,10.46,10.46,0,0,1-2.45.26,14.14,14.14,0,0,1-9.09-3.36ZM34.21,41.75h9.44v-6H17.34v6h9.39V68.63h7.48Z"/></g></g></svg>