<svg xmlns="http://www.w3.org/2000/svg" viewBox="0 0 38.69 38.7"><defs><style>.cls-1{fill:#fff;}</style></defs><title>url_icon</title><g id="Layer_2" data-name="Layer 2"><g id="Layer_1-2" data-name="Layer 1"><path class="cls-1" d="M16.57,24.14a2,2,0,0,1-1.42-.59,9.43,9.43,0,0,1,0-13.35l7.42-7.44A9.45,9.45,0,0,1,35.93,16.12l-3.4,3.4a2,2,0,0,1-2.85-2.85l3.4-3.4a5.42,5.42,0,1,0-7.66-7.66L18,13a5.43,5.43,0,0,0,0,7.66,2,2,0,0,1-1.42,3.44Z"/><path class="cls-1" d="M9.44,38.7A9.45,9.45,0,0,1,2.76,22.58l3.4-3.4A2,2,0,0,1,9,22l-3.39,3.4a5.42,5.42,0,1,0,7.66,7.66l7.43-7.43a5.43,5.43,0,0,0,0-7.66,2,2,0,1,1,2.85-2.85,9.45,9.45,0,0,1,0,13.35l-7.44,7.44A9.37,9.37,0,0,1,9.44,38.7Z"/></g></g></svg>