<svg xmlns="http://www.w3.org/2000/svg" viewBox="0 0 1722.6 88.92"><defs><style>.cls-1{fill:none;stroke:#b33767;stroke-miterlimit:10;stroke-width:6px;}</style></defs><title>Asset 60</title><g id="Layer_2" data-name="Layer 2"><g id="Layer_1-2" data-name="Layer 1"><path class="cls-1" d="M0,3C172.23,3,172.23,23,344.45,23S516.67,3,688.9,3s172.22,20,344.45,20S1205.57,3,1377.8,3,1550,23,1722.25,23"/><path class="cls-1" d="M.35,34.49c172.22,0,172.22,20,344.45,20s172.22-20,344.44-20,172.23,20,344.45,20,172.23-20,344.46-20,172.22,20,344.45,20"/><path class="cls-1" d="M.35,65.92c172.22,0,172.22,20,344.45,20s172.22-20,344.44-20,172.23,20,344.45,20,172.23-20,344.46-20,172.22,20,344.45,20"/></g></g></svg>