<?xml version="1.0" standalone="no"?>
<!DOCTYPE svg PUBLIC "-//W3C//DTD SVG 20010904//EN"
 "http://www.w3.org/TR/2001/REC-SVG-20010904/DTD/svg10.dtd">
<svg version="1.0" xmlns="http://www.w3.org/2000/svg"
 width="654.000000pt" height="654.000000pt" viewBox="0 0 654.000000 654.000000"
 preserveAspectRatio="xMidYMid meet">
<metadata>
Created by potrace 1.11, written by Peter Selinger 2001-2013
</metadata>
<g transform="translate(0.000000,654.000000) scale(0.100000,-0.100000)"
fill="#000000" stroke="none">
<path d="M3078 5802 c-8 -9 -32 -48 -54 -87 -21 -38 -40 -72 -43 -75 -6 -5
-12 -15 -59 -99 -14 -25 -45 -80 -70 -121 -25 -41 -56 -95 -70 -120 -14 -25
-32 -56 -41 -70 -9 -14 -26 -42 -36 -62 -11 -21 -23 -38 -27 -38 -5 0 -7 -4
-6 -9 2 -5 -3 -18 -9 -28 -36 -53 -110 -183 -105 -183 4 0 2 -4 -3 -8 -9 -5
-138 -222 -189 -317 -6 -11 -13 -22 -16 -25 -3 -3 -10 -14 -16 -25 -24 -43
-187 -321 -202 -345 -9 -14 -17 -27 -17 -30 0 -3 -8 -16 -17 -30 -9 -14 -26
-44 -39 -67 -86 -151 -144 -249 -152 -254 -5 -3 -9 -10 -9 -15 -1 -5 -12 -26
-24 -46 -13 -21 -24 -39 -24 -41 0 -3 -31 -56 -68 -118 -37 -63 -71 -121 -75
-129 -4 -8 -18 -33 -32 -55 -14 -22 -44 -73 -67 -114 -74 -127 -84 -143 -153
-261 -37 -63 -76 -129 -86 -147 -61 -107 -144 -249 -149 -253 -3 -3 -13 -21
-23 -40 -33 -63 -52 -95 -58 -100 -3 -3 -17 -25 -30 -50 -45 -79 -68 -119
-244 -420 -95 -162 -181 -309 -191 -327 -11 -18 -53 -90 -94 -160 -41 -70 -80
-137 -86 -148 -6 -11 -41 -72 -79 -135 -295 -500 -405 -690 -405 -700 0 -10
147 -8 1785 15 198 3 533 7 745 10 212 3 395 7 407 9 13 3 25 0 28 -5 4 -5 11
-6 17 -3 5 3 130 8 276 10 392 5 1011 13 1472 20 223 3 525 7 671 8 147 2 271
6 277 10 6 3 13 3 15 -2 3 -4 23 -6 44 -4 21 2 49 2 63 2 14 -1 30 -1 35 -1 6
0 132 3 282 5 149 2 276 7 282 11 6 3 11 1 11 -5 0 -6 5 -8 12 -4 6 4 34 6 61
5 49 -1 50 -1 34 17 -9 10 -17 24 -17 30 0 7 -4 12 -10 12 -5 0 -10 4 -10 9 0
19 -45 80 -56 76 -7 -2 -10 4 -7 16 3 10 0 19 -6 19 -6 0 -11 5 -11 10 0 6 -5
16 -10 23 -6 7 -79 116 -163 242 -83 127 -155 231 -159 233 -5 2 -8 8 -8 14 0
8 -55 93 -70 108 -3 3 -11 17 -19 33 -8 15 -18 27 -23 27 -4 0 -8 4 -8 10 0 8
-73 124 -97 155 -5 6 -26 38 -48 72 -22 35 -43 63 -47 63 -5 0 -8 6 -8 13 0 6
-11 25 -25 41 -14 16 -25 35 -25 43 0 7 -7 16 -15 19 -8 4 -15 10 -15 15 0 4
-64 104 -142 221 -147 220 -162 243 -174 267 -4 8 -14 22 -21 30 -26 29 -103
150 -103 161 0 5 -4 10 -8 10 -5 0 -17 16 -28 35 -10 19 -22 35 -26 35 -5 0
-8 4 -8 9 0 12 -229 354 -243 363 -7 4 -9 8 -4 8 4 0 -9 24 -28 53 -20 28 -40
59 -45 67 -6 8 -42 61 -80 118 -39 57 -70 107 -70 112 0 4 -3 10 -7 12 -5 2
-32 39 -61 83 -76 116 -75 115 -94 140 -10 13 -18 27 -18 33 0 5 -9 17 -20 27
-11 10 -20 24 -20 32 0 7 -4 13 -10 13 -5 0 -10 7 -10 15 0 8 -4 15 -10 15 -5
0 -10 4 -10 9 0 5 -19 37 -42 71 -24 34 -47 70 -53 81 -5 10 -13 19 -17 19 -5
0 -8 7 -8 15 0 8 -4 15 -10 15 -5 0 -10 6 -10 13 0 8 -9 22 -20 32 -11 10 -20
22 -20 27 0 5 -5 14 -10 21 -20 24 -80 112 -87 127 -11 24 -95 144 -107 152
-6 4 -8 8 -4 8 9 0 -212 333 -224 338 -4 2 -8 8 -8 14 0 12 -61 102 -72 106
-4 2 -8 8 -8 13 0 12 -281 433 -292 437 -4 2 -8 8 -8 13 0 6 -31 57 -70 115
-38 57 -70 109 -70 114 0 6 -4 10 -8 10 -5 0 -15 12 -23 28 -8 15 -19 33 -26
39 -6 7 -33 47 -59 88 -26 41 -51 75 -56 75 -5 0 -7 3 -4 8 2 4 -1 15 -8 25
-12 16 -14 16 -28 -1z m-1728 -4877 c0 -2 -18 -9 -41 -15 -22 -6 -48 -14 -57
-17 -10 -4 -14 -2 -9 3 14 15 107 41 107 29z m-120 -33 c0 -5 -6 -9 -12 -9 -7
-1 -35 -8 -61 -16 -61 -19 -52 -8 11 15 56 20 62 21 62 10z m-130 -44 c0 -6
-3 -9 -6 -5 -3 3 -23 -1 -45 -8 -21 -8 -39 -10 -39 -6 0 5 17 13 38 19 51 14
52 14 52 0z m-120 -33 c-14 -8 -34 -14 -45 -14 -13 0 -8 5 15 14 46 18 61 18
30 0z m-72 -21 c-4 -3 -14 -7 -25 -9 -10 -2 -19 -4 -20 -4 -2 -1 -4 -1 -5 0
-2 0 -16 -5 -33 -11 -16 -7 -39 -14 -50 -16 -21 -4 -132 -37 -202 -59 -24 -8
-43 -11 -43 -7 0 6 331 107 352 107 3 0 10 3 14 8 4 4 10 5 12 2 3 -3 3 -8 0
-11z m-398 -114 c-20 -13 -33 -13 -25 0 3 6 14 10 23 10 15 0 15 -2 2 -10z
m-40 -10 c0 -5 -4 -10 -10 -10 -5 0 -10 5 -10 10 0 6 5 10 10 10 6 0 10 -4 10
-10z m-35 -9 c-12 -11 -125 -44 -131 -38 -2 2 15 10 38 17 24 7 54 16 68 20
34 11 35 11 25 1z m-145 -40 c0 -4 -28 -16 -62 -25 -35 -10 -70 -20 -78 -23
-8 -3 -19 -7 -25 -8 -5 -2 -23 -6 -40 -10 -19 -5 -26 -4 -20 2 6 5 40 17 77
26 53 14 125 36 146 46 1 0 2 -3 2 -8z"/>
</g>
</svg>
